# xmcd CD database file
#
# Track frame offsets:
#	150
#	8953
#	32211
#	45871
#	58205
#	79595
#	93790
#	115531
#	127602
#	144280
#
# Disc length: 2203 seconds
#
# Revision: 0
# Processed by: cddbd v1.5.1PL0 Copyright (c) Steve Scherf et al.
# Submitted via: CDex 1.51
#
DISCID=6a08990a
DTITLE=JAKLIN - JAKLIN
DYEAR=1969
DGENRE=Blues
TTITLE0=Rosie
TTITLE1=Song To Katherine
TTITLE2=Look For Me Baby
TTITLE3=Early In The Morning
TTITLE4=Just Been Left Again
TTITLE5=The Same For You
TTITLE6=I Can´t Go On
TTITLE7=Going Home
TTITLE8=I´m Leaving
TTITLE9=Catfish Blues
EXTD=YEAR: 1969
EXTT0=
EXTT1=
EXTT2=
EXTT3=
EXTT4=
EXTT5=
EXTT6=
EXTT7=
EXTT8=
EXTT9=
PLAYORDER=
